<?xml version="1.0" encoding="utf-8" ?><svg xmlns="http://www.w3.org/2000/svg" xmlns:xlink="http://www.w3.org/1999/xlink" width="512" height="512" viewBox="0 0 512 512"><path fill="#0286A0" transform="scale(0.5 0.5)" d="M175.813 392.2C193.101 389.152 216.928 399.052 231.37 408.202C214.386 429.681 201.221 440.293 177.385 453.803C191.4 458.692 217.535 481.723 222.077 495.734C230.844 494.76 242.478 494.624 251.184 496.202C253.408 478.323 255.116 471.645 249.029 453.829C252.221 450.925 256.357 446.921 259.831 444.567C262.653 450.67 264.908 458.746 265.994 465.346C269.599 488.215 264.131 511.587 250.755 530.483C236.239 550.584 217.073 562.362 192.623 566.416C171.451 568.401 150.587 564.319 133.702 550.768C149.533 530.017 161.42 521.075 183.585 507.924C163.686 496.454 152.955 485.634 141.238 466.189C131.539 467.151 121.755 466.846 112.135 465.282C109.718 479.536 110.362 492.485 114.925 506.241C112.322 508.833 106.35 513.614 103.339 516.169C91.0741 486.234 95.5489 447.95 116.591 423.017C132.188 404.535 151.812 394.497 175.813 392.2ZM147.412 448.334C172.286 442.541 193.345 431.851 210.176 412.321C202.061 409.085 187.65 404.776 178.801 405.673C148.201 408.402 130.142 423.948 116.903 450.994C128.358 450.929 136.159 451.047 147.412 448.334ZM154.378 547.344C160.079 549.139 165.698 551.133 171.534 552.352C207.565 557.251 228.98 539.824 246.103 510.116C240.403 509.626 235.294 509.206 229.529 509.649C197.084 514.114 177.429 523.794 154.378 547.344ZM207.255 499.245C197.117 480.574 179.08 462.811 156.421 463.21C166.608 480.054 177.898 493.954 197.968 499.753C201.536 500.784 203.747 500.562 207.255 499.245Z"/><path fill="#43AFC6" transform="scale(0.5 0.5)" d="M154.811 463.621L155.97 463.758C155.111 465.027 147.608 466.273 145.615 466.682L144.314 466.419L144.302 466.031C146.98 464.956 151.8 464.198 154.811 463.621Z"/><path fill="#023960" transform="scale(0.5 0.5)" d="M337.957 425.257C358.018 425.527 369.131 432.911 372.927 453.287C368.643 453.041 361.624 453.378 356.891 453.272C351.386 441.251 339.859 437.166 327.3 443.503C323.404 445.469 321.774 449.445 320.824 453.553L320.946 453.986C322.497 459.701 325.522 463.842 331.401 465.608C349.394 471.015 376.505 471.875 376.367 497.453C376.242 520.691 355.253 528.046 335.454 527.983C314.364 525.869 306.892 518.958 300.835 499.018C306.372 499.25 313.174 499.098 318.807 499.115C323.034 509.456 329.29 512.9 340.201 512.78C348.779 512.685 359.453 507.614 358.185 497.629C356.552 484.771 335.046 484.212 325.539 480.97C317.778 478.573 307.835 473.098 305.328 464.562C297.708 438.617 315.743 426.55 337.957 425.257Z"/><path fill="#023960" transform="scale(0.5 0.5)" d="M412.648 451.667C414.615 451.529 416.586 451.448 418.558 451.422C453.078 451.203 449.876 482.208 449.081 507.204C448.886 513.36 448.958 519.937 448.977 526.117C443.42 526.306 437.425 526.265 431.835 526.322C431.654 523.312 431.661 522.165 431.865 519.154C430.394 520.423 428.849 521.604 427.238 522.689C413.911 531.796 396.518 529.953 387.25 515.828C385.542 512.613 384.851 509.604 384.747 505.968C384.046 481.575 415.232 481.524 432.376 481.486C431.265 475.191 429.809 468.652 423.314 465.745C420.086 464.329 416.43 464.239 413.136 465.495C408.246 467.36 406.005 470.59 403.897 474.992L387.854 475.09C389.278 458.945 398.249 454.013 412.648 451.667ZM409.367 513.789C418.906 516.834 428.882 511.501 431.212 501.821C431.813 499.324 431.952 496.391 432.151 493.827L427.4 493.716C421.672 494.01 403.204 494.229 402.931 504.166C402.875 506.232 404.566 510.205 406.235 511.644C407.194 512.475 408.245 513.195 409.367 513.789Z"/><path fill="#023960" transform="scale(0.5 0.5)" d="M877.752 451.684C892.181 449.432 908.127 456.018 911.339 471.512C913.06 479.813 912.538 488.256 912.526 496.692L912.48 526.091C906.793 526.11 901.107 526.099 895.42 526.061L895.61 519.631C880.809 531.337 859.554 532.74 849.821 513.656C848.823 510.524 848.341 507.251 848.394 503.965C848.915 482.489 880.645 481.15 896.266 481.749C896.011 480.691 895.746 479.634 895.472 478.581C894.258 473.9 892.654 468.018 887.961 465.871C879.017 461.779 871.385 467.642 867.423 475.013L851.372 475.056C854.717 458.009 861.573 453.889 877.752 451.684ZM878.147 514.752C891.586 513.777 894.874 506.362 895.742 493.907C893.034 493.929 887.497 493.833 885.061 494.219C861.574 495.857 861.913 513.368 878.147 514.752Z"/><path fill="#023960" transform="scale(0.5 0.5)" d="M488.86 451.684C506.755 449.815 521.561 456.518 523.384 476.627C523.974 483.128 523.68 489.777 523.654 496.314L523.505 526.253C518.81 526.083 511.589 526.056 506.99 526.342L506.907 519.089C493.163 531.273 470.266 532.448 461.32 514.012C460.41 511.558 459.934 508.684 459.825 506.067C458.831 482.103 491.006 481.877 507.437 481.657C506.339 475.461 505.257 469.494 499.196 466.082C496.105 464.322 492.411 463.963 489.041 465.096C483.768 466.85 481.285 470.383 479.013 474.995L462.651 475.012C466.292 457.883 472.114 454.365 488.86 451.684ZM484.53 514.08C496.162 516.21 505.181 510.839 506.851 498.762C507.069 497.183 507.459 495.664 506.956 494.148C505.326 493.503 504.549 493.672 502.812 493.744C494.83 493.953 477.692 494.264 477.969 505.688C478.072 509.948 480.981 512.302 484.53 514.08Z"/><path fill="#023960" transform="scale(0.5 0.5)" d="M637.362 451.704C640.016 451.388 642.997 451.537 645.635 451.937C668.763 455.443 673.29 474.796 674.378 493.992L621.575 494.005C624.093 503.235 627.768 513.945 639.523 514.2C648.332 514.391 653.309 510.394 659.314 504.617L667.625 504.442C669.436 504.472 671.801 504.113 673.642 503.897C668.68 517.827 661.128 525.036 646.075 527.471C610.545 533.219 593.314 490.506 612.617 464.459C618.756 456.175 627.248 452.965 637.362 451.704ZM621.769 482.026L640.186 481.96L657.058 481.944C654.284 472.452 650.62 464.748 639.178 465.151C627.73 466.459 624.868 471.932 621.769 482.026Z"/><path fill="#023960" transform="scale(0.5 0.5)" d="M718.79 451.644C762.993 446.868 747.888 498.638 751.701 525.921C746.641 526.512 738.474 526.313 733.185 526.33C733.108 516.456 733.353 506.483 733.27 496.603C733.149 482.129 734.73 462.271 713.678 467.271C708.801 469.292 704.868 473.186 704.111 478.461C701.94 493.58 702.878 511.159 702.991 526.333C698.238 526.002 690.275 526.142 685.517 526.449L685.456 452.984L702.951 453.035L702.983 460.554C708.368 454.083 710.814 453.089 718.79 451.644Z"/><path fill="#023960" transform="scale(0.5 0.5)" d="M560.787 451.65C577.401 449.543 589.638 455.023 594.313 471.998L579.524 472.066C578.942 471.371 578.339 470.694 577.716 470.036C571.305 463.272 555.375 461.938 554.026 473.38C553.286 479.662 571.223 482.071 576.646 483.4C583.293 485.03 593.151 490.448 595.331 498.401C599.472 519.333 582.848 526.503 567.125 527.898C549.538 528.168 539.757 522.461 535.498 504.863L551.219 504.986C554.455 513.131 560.213 514.55 568.766 514.196C571.511 514.082 576.31 512.28 577.825 509.885C585.234 498.143 562.948 496.215 556.138 494.271C544.247 490.876 535.838 484.445 537.132 470.926C537.563 466.427 538.261 465.813 540.799 462.054C545.751 454.721 552.754 453.105 560.787 451.65Z"/><path fill="#023960" transform="scale(0.5 0.5)" d="M770.504 433.995C776.33 433.943 782.156 433.944 787.983 433.998L788.008 453.032L807.02 453.004L807.012 466.541C800.301 466.102 794.653 466.216 788.006 466.459C787.95 478.076 787.762 489.729 788.025 501.339C788.31 513.879 797.46 512.34 806.637 511.114L806.533 520.125L806.553 525.752C802.56 526.358 798.528 526.672 794.489 526.693C769.732 526.946 770.329 512.635 770.526 492.885C770.613 484.117 770.535 475.211 770.862 466.393C766.389 465.979 762.577 466.257 758.098 466.521C758.146 462.038 758.076 457.554 757.889 453.074C762.015 452.944 766.51 453.028 770.665 453.024L770.504 433.995Z"/><path fill="#023960" transform="scale(0.5 0.5)" d="M927.203 423.188C932.238 422.845 939.801 423.025 944.992 423.014L944.951 493.059L944.95 514.142C944.968 517.801 945.24 522.136 944.856 525.68L944.072 526.141L927.203 526.315L927.203 423.188Z"/><path fill="#023960" transform="scale(0.5 0.5)" d="M819.496 452.977L836.992 452.938L837.023 526.464C831.042 526.049 825.497 526.301 819.517 526.474C819.027 503.143 819.174 476.351 819.496 452.977Z"/><path fill="#687B84" transform="scale(0.5 0.5)" d="M819.341 568.621C840.385 569.794 841.559 596.197 822.858 601.619C818.757 601.66 816.215 601.494 812.576 599.205C808.819 596.844 806.23 593.011 805.442 588.645C803.598 578.705 809.332 570.268 819.341 568.621ZM822.827 597.036C835.897 590.031 831.457 572.01 817.557 573.53C805.575 581.377 809.084 597.851 822.827 597.036Z"/><path fill="#687B84" transform="scale(0.5 0.5)" d="M662.529 568.587C665.293 568.647 667.872 568.927 670.431 570.086C674.302 571.87 677.256 575.185 678.585 579.235C680.074 583.791 679.621 588.76 677.333 592.972C674.752 597.775 671.412 599.985 666.383 601.528C662.63 601.494 660.793 601.693 657.322 599.946C653.369 597.994 650.444 594.439 649.288 590.185C646.352 579.659 652.266 571.195 662.529 568.587ZM665.387 597.145C669.239 595.603 671.854 593.844 673.497 589.774C674.786 586.568 674.674 582.969 673.187 579.85C671.091 575.511 667.726 573.699 663.155 573.042C659.415 574.369 656.955 575.857 655.151 579.597C653.629 582.8 653.493 586.488 654.775 589.795C655.86 592.681 658.06 595.009 660.881 596.254C662.525 596.969 663.622 597.045 665.387 597.145Z"/><path fill="#687B84" transform="scale(0.5 0.5)" d="M846.359 568.873C846.948 568.859 849.455 568.806 849.763 568.952C855.52 571.689 864.239 586.915 868.001 592.218C867.955 588.665 867.546 571.618 868.629 569.245C869.845 568.877 870.678 569.113 871.939 569.286C873.899 571.848 873.035 596.695 873.006 601.604C872.478 601.606 870.315 601.566 870.033 601.445C864.167 598.93 854.819 583.113 851.588 578.029C852.025 584.378 851.996 592.319 851.725 598.749C851.665 600.164 850.838 600.728 849.931 601.43C844.273 601.503 846.326 574.309 846.359 568.873Z"/><path fill="#687B84" transform="scale(0.5 0.5)" d="M354.516 568.92C357.821 568.949 359.325 569.067 361.491 571.822C366.503 578.195 371.708 585.294 376.044 592.121C376.049 588.734 375.518 570.757 376.96 569.249C378.558 569.149 378.949 568.996 380.462 569.524C381.862 572.558 381.132 595.822 381.128 600.968L380.675 601.376C377.915 602.119 376.209 600.777 374.561 598.707C369.672 592.562 364.295 585.481 360.036 578.95C359.873 584.015 360.427 596.241 359.585 600.3C358.232 601.26 357.548 600.837 355.448 600.775C353.579 598.74 354.455 573.857 354.516 568.92Z"/><path fill="#687B84" transform="scale(0.5 0.5)" d="M610.813 568.906C616.664 568.767 618.081 571.481 621.15 576.015C624.855 581.49 628.598 586.842 632.472 592.192C632.249 585.92 632.417 579.458 632.413 573.171C632.412 571.206 632.608 570.788 634.031 569.408C635.761 568.889 634.982 568.799 636.461 569.428C638.263 572.045 637.526 596.156 637.512 601.38C633.592 601.875 631.957 600.4 629.672 597.284C625.257 591.265 620.945 585.07 616.462 579.104C616.534 585.103 616.534 594.286 615.663 600.3C615.56 601.011 615.057 601.019 614.264 601.383C608.309 600.229 610.867 574.841 610.813 568.906Z"/><path fill="#687B84" transform="scale(0.5 0.5)" d="M593.017 593C592.998 586.058 592.863 579.126 592.84 572.188C592.834 570.141 594.969 567.986 597.281 568.785C599.182 571.98 597.797 595.701 597.742 600.957C597.421 601.314 597.101 601.671 596.78 602.028C589.986 599.846 580.699 583.631 576.603 577.039C576.888 581.312 578.153 598.742 575.149 601.3C573.745 601.403 573.819 601.316 572.561 600.621C571.243 596.899 571.688 573.773 572.035 568.858C576.357 568.976 577.906 570.729 580.369 574.16C584.729 580.231 589.007 586.701 593.017 593Z"/><path fill="#687B84" transform="scale(0.5 0.5)" d="M730.962 569.056L737.958 569.039C741.65 579.305 745.615 589.882 748.89 600.256L748.374 601.221C741.69 603.476 743.083 596.514 740.99 593.291C740.24 592.138 737.958 592.291 736.623 592.187C733.335 592.234 731.107 592.254 727.818 591.97C726.651 596.184 726.028 602.971 719.88 600.874C719.812 597.082 729.059 574.005 730.962 569.056ZM729.321 587.5L736.125 587.61L738.85 587.708C738.48 585.488 735.335 575.974 734.04 574.28C732.115 579.031 730.868 582.657 729.321 587.5Z"/><path fill="#687B84" transform="scale(0.5 0.5)" d="M497.831 568.751C499.578 568.817 500.164 568.704 501.706 569.565C504.208 572.544 503.17 578.73 503.062 582.951C507.88 582.689 513.644 582.783 518.535 582.736C518.666 578.599 517.73 571.838 520.408 569.041C522.24 568.743 521.355 568.641 523.13 569.524C524.701 572.629 524.028 596.71 523.935 601.649C518.711 601.673 518.379 599.737 518.391 594.799C518.398 592.332 518.498 589.786 518.538 587.313C513.52 587.148 508.082 587.326 503.032 587.397C503.107 590.56 503.792 598.614 502.154 600.7C500.477 600.929 500.444 601.038 498.794 600.458C497.29 597.742 498.063 574.142 497.831 568.751Z"/><path fill="#687B84" transform="scale(0.5 0.5)" d="M427.506 568.956C432.046 569.136 444.886 568.43 448.234 569.687C448.69 571.054 448.66 570.365 448.207 571.826C445.468 573.767 436.582 573.258 432.627 573.428C432.724 576.279 432.586 579.775 432.549 582.678C435.486 582.604 447.532 581.581 447.853 585.118C445.193 588.277 436.39 587.548 432.582 587.136L432.547 596.993C436.868 596.75 448.212 594.979 448.94 600.331C447.39 601.839 430.966 601.457 427.492 601.51L427.506 568.956Z"/><path fill="#023960" transform="scale(0.5 0.5)" d="M825.256 422.79C830.916 421.167 836.823 424.428 838.463 430.084C840.104 435.739 836.861 441.655 831.21 443.314C825.536 444.979 819.587 441.718 817.94 436.038C816.292 430.358 819.571 424.42 825.256 422.79Z"/><path fill="#687B84" transform="scale(0.5 0.5)" d="M471.504 568.623C477.64 568.412 486.649 571.119 486.852 578.509C486.174 580.177 486.723 579.565 485.171 580.429C480.775 580.173 480.717 575.906 478.44 574.619C460.901 564.707 457.04 601.721 477.205 596.654C479.544 594.797 482.897 591.329 485.884 593.319C486.257 597.099 480.956 600.57 477.715 601.317C461.778 604.989 453.837 587.601 461.043 575.055C463.453 570.859 467.006 569.525 471.504 568.623Z"/><path fill="#023960" transform="scale(0.5 0.5)" d="M120.77 519.324C124.38 522.609 129.814 528.818 133.319 532.592C129.979 536.207 124.268 541.354 120.566 544.891C116.044 540.633 111.578 536.315 107.171 531.939C110.082 529.072 117.817 521.109 120.77 519.324Z"/><path fill="#687B84" transform="scale(0.5 0.5)" d="M710.477 568.345C712.382 568.475 712.353 568.51 714.042 569.145C714.819 570.833 705.305 597.01 703.732 601.649L697.555 601.56C694.814 596.01 690.66 583.613 688.455 577.453C687.632 575.134 685.937 571.421 686.416 569.267C687.358 568.703 688.614 568.617 689.704 568.997C692.602 570.007 699.149 591.654 700.619 595.993C703.194 587.089 706.678 576.729 710.477 568.345Z"/><path fill="#023960" transform="scale(0.5 0.5)" d="M242.654 415.747C247.031 418.331 252.893 424.438 256.717 428.133C252.137 432.336 248.64 435.702 244.389 440.227C241.657 438.678 233.307 429.591 230.534 426.674C234.346 423.061 238.721 419.366 242.654 415.747Z"/><path fill="#023960" transform="scale(0.5 0.5)" d="M161.629 493.857L162.605 494.174C163.338 496.236 163.032 508.479 163 511.66C157.652 511.6 152.304 511.58 146.956 511.602C146.637 511.486 146.408 511.201 146.146 510.986C145.813 505.395 146.415 499.792 146.1 494.028C151.285 494.054 156.45 494.14 161.629 493.857Z"/><path fill="#687B84" transform="scale(0.5 0.5)" d="M304.957 569.234C309.477 569.526 322.816 568.529 325.265 570.307C325.422 571.963 325.635 571.249 324.672 572.54C321.307 574.318 313.986 573.629 309.914 573.535L309.938 582.957C313.762 583.065 319.051 582.348 322.644 583.353C324.174 583.781 324.38 585.194 324.973 586.669C321.916 587.817 313.55 587.547 309.957 587.496C310.068 591.365 311.225 599.118 307.787 601.253C302.228 600.594 304.722 574.672 304.957 569.234Z"/><path fill="#023960" transform="scale(0.5 0.5)" d="M211.916 449.765C213.25 449.74 215.335 449.413 216.071 450.119C216.556 454.17 216.197 462.673 216.135 467.05C211.617 466.8 206.914 466.859 202.375 466.847C201.014 467.005 201.491 466.994 200.116 466.707C198.559 464.73 199.396 453.46 199.483 450.04L211.916 449.765Z"/><path fill="#687B84" transform="scale(0.5 0.5)" d="M391.688 568.946C397.563 569.201 411.867 567.932 417.105 570.201C417.686 570.453 417.426 571.324 417.396 572.229C415.537 573.994 409.629 573.497 406.944 573.476L406.984 592.125C407.127 595.666 408.112 600.419 404.173 602.062L403.345 601.396C401.059 596.445 401.915 579.972 401.949 573.443C398.436 573.316 395.106 574.273 392.288 572.711C391.271 570.969 391.62 571.324 391.688 568.946Z"/><path fill="#687B84" transform="scale(0.5 0.5)" d="M753.104 569.045C758.072 569.23 777.192 567.455 779.144 571.913L778.671 572.64C775.598 573.536 771.801 573.442 768.53 573.533L768.543 589.875C768.61 593.049 769.558 599.889 766.521 601.508C761.363 600.895 763.435 578.366 763.508 573.496C760.454 573.552 757.023 574.221 754.272 572.967C753.112 571.771 753.249 570.743 753.104 569.045Z"/><path fill="#687B84" transform="scale(0.5 0.5)" d="M553.614 569.004C555.857 569.062 556.513 568.929 558.506 569.797C559.727 572.145 559.216 597.469 559.075 601.561C557.037 601.574 556.197 601.751 554.394 600.951C552.79 598.919 553.574 573.54 553.614 569.004Z"/><path fill="#687B84" transform="scale(0.5 0.5)" d="M336.551 569.114C338.395 569.001 339.067 568.814 340.784 569.539C342.257 571.542 341.497 597.302 341.461 601.607C339.384 601.484 339.142 601.528 337.249 600.784C335.489 597.531 336.452 573.955 336.551 569.114Z"/><path fill="#687B84" transform="scale(0.5 0.5)" d="M789.029 569.08C791.042 568.938 791.337 568.855 793.262 569.295C794.472 571.107 793.969 597.395 794.038 601.615C791.942 601.534 791.662 601.59 789.74 600.881C788.244 599.036 788.996 573.279 789.029 569.08Z"/></svg>